<svg xmlns="http://www.w3.org/2000/svg" width="31.907" height="32.79" viewBox="0 0 31.907 32.79">
  <g id="Group_23" data-name="Group 23" opacity="0.4">
    <g id="Group_22" data-name="Group 22">
      <path id="Path_37" data-name="Path 37" d="M4253.343,2821.344h-13.173a9.378,9.378,0,0,1-9.367-9.367v-14.056a9.377,9.377,0,0,1,9.367-9.367h13.173a9.377,9.377,0,0,1,9.367,9.367v14.056A9.377,9.377,0,0,1,4253.343,2821.344Zm-13.173-30.388a6.973,6.973,0,0,0-6.965,6.965v14.056a6.973,6.973,0,0,0,6.965,6.965h13.173a6.972,6.972,0,0,0,6.964-6.965v-14.056a6.972,6.972,0,0,0-6.964-6.965Z" transform="translate(-4230.803 -2788.554)" fill="#7d756c"/>
      <path id="Path_38" data-name="Path 38" d="M4250.215,2817.262a8.721,8.721,0,0,1-8.711-8.712,8.855,8.855,0,0,1,2.671-6.321,8.323,8.323,0,0,1,6.083-2.39,9.018,9.018,0,0,1,6.51,2.644,8.428,8.428,0,0,1,2.159,6.1h0a8.927,8.927,0,0,1-2.58,6.123A8.574,8.574,0,0,1,4250.215,2817.262Zm-.2-14.49a5.419,5.419,0,0,0-3.794,1.563,5.907,5.907,0,0,0-1.78,4.215,5.776,5.776,0,1,0,11.552-.032h0a5.561,5.561,0,0,0-1.367-4.028,6.171,6.171,0,0,0-4.453-1.717C4250.119,2802.772,4250.067,2802.772,4250.014,2802.772Z" transform="translate(-4234.263 -2792.201)" fill="#7d756c"/>
      <circle id="Ellipse_7" data-name="Ellipse 7" cx="2.032" cy="2.032" r="2.032" transform="translate(22.844 5.361)" fill="#7d756c"/>
    </g>
  </g>
</svg>
