<svg xmlns="http://www.w3.org/2000/svg" width="39.811" height="39.811" viewBox="0 0 39.811 39.811">
  <g id="Group_21" data-name="Group 21" transform="translate(0)" opacity="0.4">
    <g id="Group_20" data-name="Group 20">
      <path id="Path_36" data-name="Path 36" d="M4138.139,2783.367a19.909,19.909,0,0,0-7.254,38.447,19.161,19.161,0,0,1,.069-5.716c.361-1.553,2.334-9.894,2.334-9.894a7.188,7.188,0,0,1-.6-2.956c0-2.767,1.6-4.834,3.6-4.834a2.5,2.5,0,0,1,2.519,2.8c0,1.708-1.087,4.261-1.648,6.628a2.89,2.89,0,0,0,2.948,3.6c3.538,0,6.257-3.731,6.257-9.115,0-4.766-3.425-8.1-8.314-8.1a8.616,8.616,0,0,0-8.989,8.639,7.74,7.74,0,0,0,1.482,4.542.6.6,0,0,1,.138.571c-.151.629-.487,1.981-.553,2.257-.086.365-.288.442-.665.267-2.486-1.157-4.041-4.792-4.041-7.711,0-6.279,4.563-12.045,13.153-12.045,6.9,0,12.271,4.92,12.271,11.5,0,6.86-4.326,12.381-10.33,12.381a5.327,5.327,0,0,1-4.562-2.285s-1,3.8-1.24,4.731a22.219,22.219,0,0,1-2.474,5.219,19.907,19.907,0,1,0,5.894-38.923Z" transform="translate(-4118.234 -2783.367)" fill="#7d756c"/>
    </g>
  </g>
</svg>
