<svg xmlns="http://www.w3.org/2000/svg" width="34.54" height="28.072" viewBox="0 0 34.54 28.072">
  <path id="Path_35" data-name="Path 35" d="M4022.7,2824.779c13.035,0,20.163-10.8,20.163-20.163,0-.307-.006-.612-.021-.916a14.406,14.406,0,0,0,3.536-3.669,14.156,14.156,0,0,1-4.07,1.115,7.113,7.113,0,0,0,3.117-3.92,14.191,14.191,0,0,1-4.5,1.719,7.093,7.093,0,0,0-12.077,6.463,20.116,20.116,0,0,1-14.606-7.4,7.092,7.092,0,0,0,2.194,9.46,7.033,7.033,0,0,1-3.21-.887c0,.03,0,.06,0,.091a7.089,7.089,0,0,0,5.685,6.948,7.082,7.082,0,0,1-3.2.121,7.093,7.093,0,0,0,6.62,4.922,14.217,14.217,0,0,1-8.8,3.034,14.466,14.466,0,0,1-1.69-.1,20.058,20.058,0,0,0,10.862,3.183" transform="translate(-4011.84 -2796.707)" fill="#7d756c" opacity="0.4"/>
</svg>
